<?xml version="1.0" encoding="UTF-8"?>
<svg width="80" height="80" viewBox="0 0 100 100" xmlns="http://www.w3.org/2000/svg">
  <style>
    @keyframes rotate {
      from { transform: rotate(0deg); }
      to { transform: rotate(360deg); }
    }
    .spin { animation: rotate 12s linear infinite; }
  </style>
  <g class="spin">
    <path d="M50 15 A35 35 0 0 1 85 50 A35 35 0 0 1 50 85 A35 35 0 0 1 15 50 A35 35 0 0 1 50 15" fill="none" stroke="#16A34A" stroke-width="10"/>
    <path d="M50 25 L50 5 L60 15 Z" fill="#16A34A"/>
    <path d="M75 50 L95 50 L85 60 Z" fill="#16A34A"/>
    <path d="M50 75 L50 95 L40 85 Z" fill="#16A34A"/>
    <path d="M25 50 L5 50 L15 40 Z" fill="#16A34A"/>
    <circle cx="50" cy="50" r="22" fill="white"/>
    <circle cx="50" cy="50" r="14" fill="#16A34A"/>
  </g>
</svg>